<svg width="76" height="73" viewBox="0 0 76 73" fill="none" xmlns="http://www.w3.org/2000/svg">
<path d="M35.1468 2.78115C36.0449 0.0172215 39.9551 0.0172195 40.8532 2.78115L47.6541 23.7123C48.0557 24.9483 49.2076 25.7852 50.5073 25.7852H72.5155C75.4217 25.7852 76.63 29.5041 74.2789 31.2123L56.4738 44.1484C55.4224 44.9123 54.9824 46.2664 55.384 47.5025L62.185 68.4336C63.083 71.1976 59.9196 73.4959 57.5684 71.7877L39.7634 58.8516C38.7119 58.0877 37.2881 58.0877 36.2366 58.8516L18.4316 71.7877C16.0804 73.4959 12.917 71.1976 13.815 68.4336L20.616 47.5025C21.0176 46.2664 20.5776 44.9123 19.5262 44.1484L1.7211 31.2123C-0.630044 29.5041 0.578279 25.7852 3.48445 25.7852H25.4927C26.7924 25.7852 27.9443 24.9483 28.3459 23.7123L35.1468 2.78115Z" fill="#606060"/>
</svg>
